<?xml version="1.0" encoding="UTF-8" standalone="no"?>
<!-- Created with Inkscape (http://www.inkscape.org/) -->

<svg
   version="1.1"
   id="svg1"
   width="1706.24"
   height="1899.16"
   viewBox="0 0 1706.24 1899.16"
   sodipodi:docname="halenslanding_white_1_copy_1.svg"
   xmlns:inkscape="http://www.inkscape.org/namespaces/inkscape"
   xmlns:sodipodi="http://sodipodi.sourceforge.net/DTD/sodipodi-0.dtd"
   xmlns="http://www.w3.org/2000/svg"
   xmlns:svg="http://www.w3.org/2000/svg">
  <sodipodi:namedview
     id="namedview1"
     pagecolor="#ffffff"
     bordercolor="#000000"
     borderopacity="0.25"
     inkscape:showpageshadow="2"
     inkscape:pageopacity="0.0"
     inkscape:pagecheckerboard="0"
     inkscape:deskcolor="#d1d1d1" />
  <defs
     id="defs1" />
  <g
     id="g1"
     transform="translate(-1813.5466,-1563.0934)">
    <g
       id="group-R5">
      <path
         id="path32"
         d="m 23038.4,18137.7 1133.6,654.6 v 4781.8 l -1133.6,750.4 v -1946.2 l -4678.3,-2760 v -3578.2 l -3622.4,2087.1 v 6112 l 3552.3,2050.9 v -2629.6 l 1168.8,665.3 v 3951 l -5857.2,-3381.7 v -7423.8 l 5955.1,-3438.2 13.6,4810.1 3468.1,2003.4 v -2708.9"
         style="fill:#ffffff;fill-opacity:1;fill-rule:nonzero;stroke:none"
         transform="matrix(0.13333333,0,0,-0.13333333,0,5333.3333)" />
      <path
         id="path33"
         d="m 20443.3,28276.8 -13.6,-4810.1 -3468.1,-2003.4 v 2708.9 L 15828,23517.6 v -4781.8 l 1133.6,-750.4 v 1946.2 l 4678.3,2760 v 3578.2 l 3622.4,-2087.1 v -6112 L 21710,16019.8 v 2629.6 l -1168.8,-665.3 v -3951 l 5857.2,3381.7 v 7423.8 l -5955.1,3438.2"
         style="fill:#ffffff;fill-opacity:1;fill-rule:nonzero;stroke:none"
         transform="matrix(0.13333333,0,0,-0.13333333,0,5333.3333)" />
    </g>
  </g>
</svg>
