<?xml version="1.0" encoding="UTF-8" standalone="no"?>
<!-- Created with Inkscape (http://www.inkscape.org/) -->

<svg
   version="1.1"
   id="svg1"
   width="5333.333"
   height="5333.333"
   viewBox="0 0 5333.333 5333.333"
   xmlns="http://www.w3.org/2000/svg"
   xmlns:svg="http://www.w3.org/2000/svg">
  <defs
     id="defs1" />
  <g
     id="g1"
     transform="translate(0,-1e-4)">
    <g
       id="group-R5">
      <path
         id="path2"
         d="M 40000,0 H 0 V 40000 H 40000 V 0"
         style="fill:#100f0d;fill-opacity:1;fill-rule:nonzero;stroke:none"
         transform="matrix(0.13333333,0,0,-0.13333333,0,5333.3333)" />
      <path
         id="path3"
         d="m 16161.8,12506.8 c -70.2,-69.3 -160.9,-101.4 -259.4,-101.4 -253.6,0 -360.9,174.5 -361.8,352 -1,178.5 115,359.9 361.8,359.9 92.6,0 180.4,-35.1 250.6,-104.4 l -85.8,-82.9 c -44.9,43.9 -105.3,64.4 -164.8,64.4 -164.8,0 -236,-122.9 -235.1,-237 1,-113.1 66.4,-231.1 235.1,-231.1 59.5,0 126.7,24.4 171.6,69.2 l 87.8,-88.7"
         style="fill:#ffffff;fill-opacity:1;fill-rule:nonzero;stroke:none"
         transform="matrix(0.13333333,0,0,-0.13333333,0,5333.3333)" />
      <path
         id="path4"
         d="m 16363.6,12983.7 v -218.5 h 196 c 81.9,0 117,54.6 117,109.2 0,54.7 -36,109.3 -117,109.3 z m 475.9,-562.7 h -153.1 l -199,228.2 h -123.8 V 12421 h -128.7 v 683.6 c 108.2,0 216.5,-1 324.7,-1 160.9,-1 245.8,-108.2 245.8,-226.2 0,-93.7 -42.9,-188.2 -172.6,-214.6 l 206.7,-233.1 v -8.7"
         style="fill:#ffffff;fill-opacity:1;fill-rule:nonzero;stroke:none"
         transform="matrix(0.13333333,0,0,-0.13333333,0,5333.3333)" />
      <path
         id="path5"
         d="m 17401.2,12421 h -511 c 0,227.2 0,455.4 0,682.6 h 511 v -124.8 h -383.3 v -157 h 369.6 v -120 h -369.6 v -154.1 h 383.3 V 12421"
         style="fill:#ffffff;fill-opacity:1;fill-rule:nonzero;stroke:none"
         transform="matrix(0.13333333,0,0,-0.13333333,0,5333.3333)" />
      <path
         id="path6"
         d="m 17806.8,12960.3 -126.7,-290.7 h 253.5 z m 178.5,-410.6 h -356.9 l -58.5,-128.7 h -139.5 l 306.2,682.6 h 140.5 l 306.2,-682.6 h -140.5 l -57.5,128.7"
         style="fill:#ffffff;fill-opacity:1;fill-rule:nonzero;stroke:none"
         transform="matrix(0.13333333,0,0,-0.13333333,0,5333.3333)" />
      <path
         id="path7"
         d="m 18306.1,12986.6 h -216.5 v 117 c 197,0 363.8,0 561.7,0 v -117 h -216.5 V 12421 h -128.7 v 565.6"
         style="fill:#ffffff;fill-opacity:1;fill-rule:nonzero;stroke:none"
         transform="matrix(0.13333333,0,0,-0.13333333,0,5333.3333)" />
      <path
         id="path8"
         d="m 18730.3,12421 v 682.6 h 127.8 V 12421 h -127.8"
         style="fill:#ffffff;fill-opacity:1;fill-rule:nonzero;stroke:none"
         transform="matrix(0.13333333,0,0,-0.13333333,0,5333.3333)" />
      <path
         id="path9"
         d="m 19349.5,12418 h -133.6 l -283.7,685.6 h 144.3 l 205.8,-531.5 206.7,531.5 h 144.3 l -283.8,-685.6"
         style="fill:#ffffff;fill-opacity:1;fill-rule:nonzero;stroke:none"
         transform="matrix(0.13333333,0,0,-0.13333333,0,5333.3333)" />
      <path
         id="path10"
         d="m 20221.3,12421 h -511 c 0,227.2 0,455.4 0,682.6 h 511 v -124.8 h -383.2 v -157 h 369.6 v -120 h -369.6 v -154.1 h 383.2 V 12421"
         style="fill:#ffffff;fill-opacity:1;fill-rule:nonzero;stroke:none"
         transform="matrix(0.13333333,0,0,-0.13333333,0,5333.3333)" />
      <path
         id="path11"
         d="m 20580.2,13053.9 v -582.2 h 178.4 c 202.9,0 296.5,152.1 293.6,298.4 -2.9,142.4 -96.6,283.8 -293.6,283.8 z m 524.6,-283.8 c 4,-173.6 -107.2,-349.1 -346.2,-349.1 -77,0 -154,0 -231.1,0 v 682.6 c 77.1,0 154.1,0 231.1,0 231.2,0 342.3,-165.8 346.2,-333.5"
         style="fill:#ffffff;fill-opacity:1;fill-rule:nonzero;stroke:none"
         transform="matrix(0.13333333,0,0,-0.13333333,0,5333.3333)" />
      <path
         id="path12"
         d="m 21275.5,12788.6 h 399.8 v -47.8 h -399.8 v -269.1 h 431 v -50.7 h -482.7 v 682.6 h 471 v -49.7 h -419.3 v -265.3"
         style="fill:#ffffff;fill-opacity:1;fill-rule:nonzero;stroke:none"
         transform="matrix(0.13333333,0,0,-0.13333333,0,5333.3333)" />
      <path
         id="path13"
         d="m 22285.8,12972 c -49.8,79.9 -129.7,91.6 -206.8,92.6 -79.9,0 -206.7,-29.2 -206.7,-138.5 0,-86.8 93.6,-107.2 208.7,-128.7 131.6,-25.3 268.2,-48.8 268.2,-196 -1,-154.1 -156.1,-191.2 -270.2,-191.2 -106.3,0 -227.2,43.9 -279.9,148.3 l 46.8,23.4 c 42,-82.9 149.2,-123.9 233.1,-123.9 83.9,0 217.5,23.4 217.5,144.4 1,102.4 -112.2,124.8 -224.3,146.2 -124.8,24.4 -252.6,49.8 -252.6,175.6 -2.9,144.3 147.3,189.2 259.4,189.2 97.5,0 182.4,-15.6 249.7,-116.1 l -42.9,-25.3"
         style="fill:#ffffff;fill-opacity:1;fill-rule:nonzero;stroke:none"
         transform="matrix(0.13333333,0,0,-0.13333333,0,5333.3333)" />
      <path
         id="path14"
         d="m 22461.3,12421 v 682.6 h 51.7 V 12421 h -51.7"
         style="fill:#ffffff;fill-opacity:1;fill-rule:nonzero;stroke:none"
         transform="matrix(0.13333333,0,0,-0.13333333,0,5333.3333)" />
      <path
         id="path15"
         d="m 23200.5,12977.8 c -59.5,58.5 -142.4,87.8 -219.5,87.8 -199.9,0 -302.3,-146.3 -301.3,-304.3 0,-160.9 102.4,-299.4 301.3,-299.4 73.2,0 149.2,25.4 207.8,79 v 191.2 h -238 v 45.8 h 287.7 v -255.5 c -71.2,-71.2 -156,-110.2 -257.5,-110.2 -232.1,0 -352,161.9 -352,348.1 -1,213.6 144.3,353.1 352,353.1 89.8,0 180.5,-34.2 249.7,-102.4 l -30.2,-33.2"
         style="fill:#ffffff;fill-opacity:1;fill-rule:nonzero;stroke:none"
         transform="matrix(0.13333333,0,0,-0.13333333,0,5333.3333)" />
      <path
         id="path16"
         d="m 23404.2,13103.6 459.4,-564.6 v 564.6 h 51.7 V 12421 h -20.5 l -460.3,563.6 V 12421 h -52.7 v 682.6 h 22.4"
         style="fill:#ffffff;fill-opacity:1;fill-rule:nonzero;stroke:none"
         transform="matrix(0.13333333,0,0,-0.13333333,0,5333.3333)" />
      <path
         id="path17"
         d="m 16956.6,11857.7 -125.7,193 v 0.4 h 29 l 109.1,-169.5 109.7,169.5 h 29 v -0.4 l -126.2,-193 v -129 h -24.9 v 129"
         style="fill:#ffffff;fill-opacity:1;fill-rule:nonzero;stroke:none"
         transform="matrix(0.13333333,0,0,-0.13333333,0,5333.3333)" />
      <path
         id="path18"
         d="m 17237,11889.9 c 0.5,-72.7 46.6,-143.7 138.2,-143.7 92.1,0 138.6,71 138.6,143.7 0,74.6 -46,143.3 -138.6,143.3 -92.6,0 -138.6,-67.3 -138.2,-143.3 z m 300.8,-0.4 c -0.5,-84.8 -54.4,-166.3 -162.6,-166.3 -108.2,0 -162.6,82 -162.6,167.2 0,86.6 53.9,165.8 162.6,165.8 108.7,0 163,-79.7 162.6,-166.7"
         style="fill:#ffffff;fill-opacity:1;fill-rule:nonzero;stroke:none"
         transform="matrix(0.13333333,0,0,-0.13333333,0,5333.3333)" />
      <path
         id="path19"
         d="m 17917.2,12051.1 v -200.3 c 0,-168.6 -246.8,-169 -246.8,0 v 200.3 h 24.4 v -200.3 c 0,-138.6 198,-138.2 198,0 v 200.3 h 24.4"
         style="fill:#ffffff;fill-opacity:1;fill-rule:nonzero;stroke:none"
         transform="matrix(0.13333333,0,0,-0.13333333,0,5333.3333)" />
      <path
         id="path20"
         d="m 18083.9,11874.3 h 114.2 c 56.2,0 81.1,31.7 81.5,76.9 0.5,37.7 -25.3,76.9 -78.7,76.9 h -117 z m 232.1,-145.6 h -32.7 l -111.4,122.1 h -88 v -122.1 h -24.9 v 322.4 c 47.5,0 94.4,0 141.9,0 70,0 105.4,-50.2 105.9,-100.4 0.5,-52.5 -34.1,-98.5 -104.5,-98.5 l 113.7,-123.5"
         style="fill:#ffffff;fill-opacity:1;fill-rule:nonzero;stroke:none"
         transform="matrix(0.13333333,0,0,-0.13333333,0,5333.3333)" />
      <path
         id="path21"
         d="m 18723.1,12028.5 h -116.6 v 22.2 h 258 v -22.2 h -116.6 v -299.8 h -24.8 v 299.8"
         style="fill:#ffffff;fill-opacity:1;fill-rule:nonzero;stroke:none"
         transform="matrix(0.13333333,0,0,-0.13333333,0,5333.3333)" />
      <path
         id="path22"
         d="m 19196.5,11831 -86.6,196.2 -86.6,-196.2 z m 45.1,-102.3 -35.5,79.2 h -192.5 l -35,-79.2 h -26.7 l 144.6,322.4 h 27.2 l 144.6,-322.4 h -26.7"
         style="fill:#ffffff;fill-opacity:1;fill-rule:nonzero;stroke:none"
         transform="matrix(0.13333333,0,0,-0.13333333,0,5333.3333)" />
      <path
         id="path23"
         d="m 19622.4,11991.7 c -28.1,27.6 -67.2,41.5 -103.6,41.5 -94.4,0 -142.8,-69.1 -142.3,-143.7 0,-76 48.4,-141.4 142.3,-141.4 34.5,0 70.5,11.9 98.1,37.3 v 90.2 h -112.4 v 21.7 h 135.9 v -120.7 c -33.6,-33.6 -73.7,-52 -121.6,-52 -109.6,0 -166.3,76.4 -166.3,164.4 -0.4,100.9 68.2,166.7 166.3,166.7 42.4,0 85.2,-16.1 117.9,-48.3 l -14.3,-15.7"
         style="fill:#ffffff;fill-opacity:1;fill-rule:nonzero;stroke:none"
         transform="matrix(0.13333333,0,0,-0.13333333,0,5333.3333)" />
      <path
         id="path24"
         d="m 19806.1,12051.1 v -298.9 h 181.5 v -23.5 h -206.3 v 322.4 h 24.8"
         style="fill:#ffffff;fill-opacity:1;fill-rule:nonzero;stroke:none"
         transform="matrix(0.13333333,0,0,-0.13333333,0,5333.3333)" />
      <path
         id="path25"
         d="m 20108.7,11728.7 v 322.4 h 24.4 v -322.4 h -24.4"
         style="fill:#ffffff;fill-opacity:1;fill-rule:nonzero;stroke:none"
         transform="matrix(0.13333333,0,0,-0.13333333,0,5333.3333)" />
      <path
         id="path26"
         d="m 20288.7,12051.1 216.9,-266.6 v 266.6 h 24.4 v -322.4 h -9.6 l -217.4,266.2 v -266.2 h -24.9 v 322.4 h 10.6"
         style="fill:#ffffff;fill-opacity:1;fill-rule:nonzero;stroke:none"
         transform="matrix(0.13333333,0,0,-0.13333333,0,5333.3333)" />
      <path
         id="path27"
         d="m 20700,11902.4 h 188.8 v -22.6 H 20700 v -127.1 h 203.5 v -24 h -228 v 322.4 h 222.5 v -23.5 h -198 v -125.2"
         style="fill:#ffffff;fill-opacity:1;fill-rule:nonzero;stroke:none"
         transform="matrix(0.13333333,0,0,-0.13333333,0,5333.3333)" />
      <path
         id="path28"
         d="m 21463,11728.7 v 146.5 h -205.4 v -146.5 h -24.9 v 322.4 h 24.9 v -153.3 h 205.4 v 153.3 h 24.9 v -322.4 h -24.9"
         style="fill:#ffffff;fill-opacity:1;fill-rule:nonzero;stroke:none"
         transform="matrix(0.13333333,0,0,-0.13333333,0,5333.3333)" />
      <path
         id="path29"
         d="m 21656.9,11902.4 h 188.8 v -22.6 h -188.8 v -127.1 h 203.5 v -24 h -227.9 v 322.4 h 222.4 v -23.5 h -198 v -125.2"
         style="fill:#ffffff;fill-opacity:1;fill-rule:nonzero;stroke:none"
         transform="matrix(0.13333333,0,0,-0.13333333,0,5333.3333)" />
      <path
         id="path30"
         d="m 22014.2,11874.3 h 114.2 c 56.2,0 81.1,31.7 81.5,76.9 0.5,37.7 -25.3,76.9 -78.7,76.9 h -117 z m 232.1,-145.6 h -32.7 l -111.4,122.1 h -88 v -122.1 h -24.9 v 322.4 c 47.5,0 94.5,0 141.9,0 70,0 105.5,-50.2 105.9,-100.4 0.5,-52.5 -34.1,-98.5 -104.5,-98.5 l 113.7,-123.5"
         style="fill:#ffffff;fill-opacity:1;fill-rule:nonzero;stroke:none"
         transform="matrix(0.13333333,0,0,-0.13333333,0,5333.3333)" />
      <path
         id="path31"
         d="m 22385.8,11902.4 h 188.9 v -22.6 h -188.9 v -127.1 h 203.6 v -24 h -228 v 322.4 h 222.5 v -23.5 h -198.1 v -125.2"
         style="fill:#ffffff;fill-opacity:1;fill-rule:nonzero;stroke:none"
         transform="matrix(0.13333333,0,0,-0.13333333,0,5333.3333)" />
      <path
         id="path32"
         d="m 23038.4,18137.7 1133.6,654.6 v 4781.8 l -1133.6,750.4 v -1946.2 l -4678.3,-2760 v -3578.2 l -3622.4,2087.1 v 6112 l 3552.3,2050.9 v -2629.6 l 1168.8,665.3 v 3951 l -5857.2,-3381.7 v -7423.8 l 5955.1,-3438.2 13.6,4810.1 3468.1,2003.4 v -2708.9"
         style="fill:#ffffff;fill-opacity:1;fill-rule:nonzero;stroke:none"
         transform="matrix(0.13333333,0,0,-0.13333333,0,5333.3333)" />
      <path
         id="path33"
         d="m 20443.3,28276.8 -13.6,-4810.1 -3468.1,-2003.4 v 2708.9 L 15828,23517.6 v -4781.8 l 1133.6,-750.4 v 1946.2 l 4678.3,2760 v 3578.2 l 3622.4,-2087.1 v -6112 L 21710,16019.8 v 2629.6 l -1168.8,-665.3 v -3951 l 5857.2,3381.7 v 7423.8 l -5955.1,3438.2"
         style="fill:#ffffff;fill-opacity:1;fill-rule:nonzero;stroke:none"
         transform="matrix(0.13333333,0,0,-0.13333333,0,5333.3333)" />
    </g>
  </g>
</svg>
